<?xml version="1.0" encoding="UTF-8"?>
<!DOCTYPE svg PUBLIC "-//W3C//DTD SVG 1.1//EN" "http://www.w3.org/Graphics/SVG/1.1/DTD/svg11.dtd">
<svg xmlns="http://www.w3.org/2000/svg" version="1.1" width="24px" height="24px" style="shape-rendering:geometricPrecision; text-rendering:geometricPrecision; image-rendering:optimizeQuality; fill-rule:evenodd; clip-rule:evenodd" xmlns:xlink="http://www.w3.org/1999/xlink">
<g><path style="opacity:0.975" fill="#9171ca" d="M -0.5,3.5 C 4.5,3.5 9.5,3.5 14.5,3.5C 14.5,4.5 14.5,5.5 14.5,6.5C 14.5,10.1667 14.5,13.8333 14.5,17.5C 13.1667,17.5 11.8333,17.5 10.5,17.5C 8.5,14.8333 6.5,14.8333 4.5,17.5C 3.5,17.5 2.5,17.5 1.5,17.5C 1.92271,15.2188 1.25605,13.5521 -0.5,12.5C -0.5,12.1667 -0.5,11.8333 -0.5,11.5C 2.16667,11.1667 2.16667,10.8333 -0.5,10.5C -0.5,9.83333 -0.5,9.16667 -0.5,8.5C 2.16667,8.16667 2.16667,7.83333 -0.5,7.5C -0.5,7.16667 -0.5,6.83333 -0.5,6.5C 2.16667,6.16667 2.16667,5.83333 -0.5,5.5C -0.5,4.83333 -0.5,4.16667 -0.5,3.5 Z"/></g>
<g><path style="opacity:1" fill="#efb814" d="M 14.5,6.5 C 18.104,6.04852 21.104,7.04852 23.5,9.5C 23.5,12.1667 23.5,14.8333 23.5,17.5C 22.8333,17.5 22.1667,17.5 21.5,17.5C 19.8333,14.8333 18.1667,14.8333 16.5,17.5C 15.8333,17.5 15.1667,17.5 14.5,17.5C 14.5,13.8333 14.5,10.1667 14.5,6.5 Z"/></g>
<g><path style="opacity:1" fill="#465a63" d="M 16.5,7.5 C 20.2349,7.54585 21.5683,9.21252 20.5,12.5C 19.2638,11.7542 17.9305,11.4208 16.5,11.5C 16.5,10.1667 16.5,8.83333 16.5,7.5 Z"/></g>
<g><path style="opacity:1" fill="#3f4f5a" d="M 10.5,17.5 C 9.92833,20.2436 8.26166,21.0769 5.5,20C 4.74756,19.3292 4.41423,18.4959 4.5,17.5C 6.5,14.8333 8.5,14.8333 10.5,17.5 Z"/></g>
<g><path style="opacity:0.617" fill="#45555c" d="M 21.5,17.5 C 21.5824,19.2517 20.7491,20.2517 19,20.5C 17.2509,20.2517 16.4176,19.2517 16.5,17.5C 18.1667,14.8333 19.8333,14.8333 21.5,17.5 Z"/></g>
</svg>
