<?xml version="1.0" encoding="UTF-8"?>
<!DOCTYPE svg PUBLIC "-//W3C//DTD SVG 1.1//EN" "http://www.w3.org/Graphics/SVG/1.1/DTD/svg11.dtd">
<svg xmlns="http://www.w3.org/2000/svg" version="1.1" width="24px" height="24px" style="shape-rendering:geometricPrecision; text-rendering:geometricPrecision; image-rendering:optimizeQuality; fill-rule:evenodd; clip-rule:evenodd" xmlns:xlink="http://www.w3.org/1999/xlink">
<g><path style="opacity:0.652" fill="#000000" d="M 6.5,1.5 C 12.5199,0.220158 17.3533,1.88682 21,6.5C 21.4935,8.13414 21.6602,9.80081 21.5,11.5C 20.5,11.5 19.5,11.5 18.5,11.5C 18.5805,6.9071 16.5805,4.9071 12.5,5.5C 13.3829,6.54801 14.0496,7.71467 14.5,9C 13.3929,10.4402 13.3929,11.9402 14.5,13.5C 14.278,15.0554 13.6113,16.3887 12.5,17.5C 13.8244,18.6869 14.8244,18.3535 15.5,16.5C 17.0453,15.5481 18.712,15.2148 20.5,15.5C 20.7852,17.288 20.4519,18.9547 19.5,20.5C 18.3247,19.1451 17.3247,19.3117 16.5,21C 10.4884,22.7745 5.65505,21.2745 2,16.5C 1.50649,14.8659 1.33982,13.1992 1.5,11.5C 2.5,11.5 3.5,11.5 4.5,11.5C 4.41948,16.0929 6.41948,18.0929 10.5,17.5C 9.58529,16.6721 8.91862,15.6721 8.5,14.5C 9.60349,12.7226 9.60349,10.8893 8.5,9C 8.84426,7.63491 9.51093,6.46824 10.5,5.5C 9.17556,4.31312 8.17556,4.64645 7.5,6.5C 5.95467,7.45189 4.28801,7.78522 2.5,7.5C 2.21478,5.71199 2.54811,4.04533 3.5,2.5C 4.92169,3.77682 5.92169,3.44349 6.5,1.5 Z"/></g>
</svg>
