<svg width="25" height="25" viewBox="0 0 25 23" fill="none" xmlns="http://www.w3.org/2000/svg">
<path d="M18.2411 14.0713C19.029 14.0713 19.8093 13.9161 20.5372 13.6146C21.2652 13.313 21.9266 12.8711 22.4837 12.3139C23.0409 11.7568 23.4829 11.0953 23.7844 10.3674C24.0859 9.63943 24.2411 8.85921 24.2411 8.07128C24.2411 7.28335 24.0859 6.50314 23.7844 5.77518C23.4829 5.04723 23.0409 4.38579 22.4837 3.82864C21.9266 3.27149 21.2652 2.82953 20.5372 2.52801C19.8093 2.22648 19.029 2.07128 18.2411 2.07128C16.6498 2.07128 15.1237 2.70342 13.9985 3.82864C12.8732 4.95386 12.2411 6.47998 12.2411 8.07128C12.2411 9.66258 12.8732 11.1887 13.9985 12.3139C15.1237 13.4391 16.6498 14.0713 18.2411 14.0713ZM24.5611 12.9773L28.1411 16.5573C28.2365 16.6496 28.3126 16.76 28.365 16.882C28.4173 17.0041 28.4448 17.1353 28.4458 17.2681C28.4469 17.4009 28.4215 17.5325 28.3711 17.6554C28.3208 17.7783 28.2464 17.8899 28.1525 17.9837C28.0585 18.0775 27.9468 18.1517 27.8239 18.2019C27.701 18.2521 27.5693 18.2773 27.4365 18.276C27.3037 18.2748 27.1725 18.2471 27.0505 18.1946C26.9286 18.1421 26.8183 18.0659 26.7261 17.9703L23.1461 14.3903C21.5386 15.6381 19.5159 16.2265 17.4899 16.0355C15.4638 15.8445 13.5867 14.8886 12.2407 13.3623C10.8946 11.8361 10.1808 9.85423 10.2445 7.82021C10.3083 5.78618 11.1448 3.85291 12.5838 2.41393C14.0227 0.974952 15.956 0.13845 17.99 0.0747088C20.024 0.0109677 22.0059 0.72478 23.5322 2.07083C25.0584 3.41689 26.0143 5.294 26.2053 7.32004C26.3963 9.34608 25.808 11.3687 24.5601 12.9763L24.5611 12.9773Z" fill="#181725"/>
<rect x="0.0965576" y="0.0707798" width="8.85499" height="2.39923" rx="1.19961" fill="#181725"/>
<rect x="0.0965576" y="7.50897" width="6.46414" height="2.39923" rx="1.19961" fill="#181725"/>
<rect x="0.0965576" y="14.9476" width="8.85499" height="2.39923" rx="1.19961" fill="#181725"/>
</svg>
