<svg width="48" height="48" viewBox="0 0 48 48" fill="none" xmlns="http://www.w3.org/2000/svg">
<path d="M20.7077 34.44C20.5542 34.3752 20.4266 34.2612 20.3451 34.1159C20.2637 33.9705 20.2329 33.8022 20.2577 33.6375L21.6227 24.75H18.0002C17.8853 24.7531 17.7713 24.7298 17.6669 24.6818C17.5625 24.6338 17.4705 24.5625 17.398 24.4734C17.3256 24.3843 17.2745 24.2797 17.2489 24.1677C17.2233 24.0557 17.2237 23.9393 17.2502 23.8275L19.5002 14.0775C19.5397 13.9097 19.6359 13.7607 19.7725 13.6555C19.9091 13.5503 20.0778 13.4954 20.2502 13.5H27.7502C27.8622 13.4996 27.9729 13.5243 28.0741 13.5724C28.1754 13.6204 28.2646 13.6905 28.3352 13.7775C28.4067 13.8655 28.4574 13.9686 28.4834 14.079C28.5094 14.1894 28.51 14.3043 28.4852 14.415L27.1877 20.25H30.7502C30.8907 20.2497 31.0285 20.2889 31.1479 20.3632C31.2672 20.4375 31.3633 20.5438 31.4252 20.67C31.4789 20.7912 31.4996 20.9244 31.4851 21.0561C31.4706 21.1879 31.4214 21.3134 31.3427 21.42L21.5927 34.17C21.5268 34.2677 21.4388 34.3485 21.3358 34.4058C21.2329 34.4631 21.1179 34.4954 21.0002 34.5C20.8998 34.4981 20.8006 34.4778 20.7077 34.44ZM25.3127 21.75L26.8127 15H20.8502L18.9452 23.25H23.3777L22.1852 30.96L29.2502 21.75H25.3127Z" fill="white"/>
</svg>
