<?xml version="1.0" standalone="no"?>
<!DOCTYPE svg PUBLIC "-//W3C//DTD SVG 20010904//EN"
 "http://www.w3.org/TR/2001/REC-SVG-20010904/DTD/svg10.dtd">
<svg version="1.0" xmlns="http://www.w3.org/2000/svg"
 width="24" height="24" viewBox="0 0 24 24"
 preserveAspectRatio="xMidYMid meet">

<g transform="translate(0.000000,24.000000) scale(0.100000,-0.100000)"
fill="#000000" stroke="none">
<path d="M4 187 c-3 -8 -4 -43 -2 -78 l3 -64 115 0 115 0 0 75 0 75 -113 3
c-89 2 -114 0 -118 -11z m224 -19 c3 -16 -7 -18 -107 -18 -86 0 -111 3 -111
13 0 25 13 28 114 25 87 -3 101 -5 104 -20z m0 -70 l-3 -43 -105 0 -105 0 -3
43 -3 42 111 0 111 0 -3 -42z"/>
<path d="M43 103 c9 -2 25 -2 35 0 9 3 1 5 -18 5 -19 0 -27 -2 -17 -5z"/>
<path d="M40 80 c0 -6 28 -10 65 -10 37 0 65 4 65 10 0 6 -28 10 -65 10 -37 0
-65 -4 -65 -10z"/>
</g>
</svg>
