<?xml version="1.0" encoding="UTF-8"?>
<!DOCTYPE svg PUBLIC "-//W3C//DTD SVG 1.1//EN" "http://www.w3.org/Graphics/SVG/1.1/DTD/svg11.dtd">
<svg xmlns="http://www.w3.org/2000/svg" version="1.1" width="24px" height="24px" style="shape-rendering:geometricPrecision; text-rendering:geometricPrecision; image-rendering:optimizeQuality; fill-rule:evenodd; clip-rule:evenodd" xmlns:xlink="http://www.w3.org/1999/xlink">
<g><path style="opacity:0.925" fill="#0c61ab" d="M 16.5,5.5 C 13.8333,5.5 11.1667,5.5 8.5,5.5C 8.32588,7.86105 7.99255,10.1944 7.5,12.5C 6.97588,14.3057 6.30921,15.9724 5.5,17.5C 4.16667,17.5 2.83333,17.5 1.5,17.5C 2.18262,12.769 3.18262,8.10237 4.5,3.5C 8.122,2.3414 11.7887,2.17473 15.5,3C 16.2524,3.67076 16.5858,4.5041 16.5,5.5 Z"/></g>
<g><path style="opacity:0.922" fill="#1899e1" d="M 16.5,5.5 C 20.1461,6.46152 21.3128,8.79486 20,12.5C 18.1561,14.8859 15.6561,16.0526 12.5,16C 11.6198,17.3561 11.2865,18.8561 11.5,20.5C 9.5,20.5 7.5,20.5 5.5,20.5C 5.5,19.5 5.5,18.5 5.5,17.5C 6.30921,15.9724 6.97588,14.3057 7.5,12.5C 12.5642,12.7648 15.5642,10.4315 16.5,5.5 Z"/></g>
<g><path style="opacity:0.985" fill="#026fc3" d="M 16.5,5.5 C 15.5642,10.4315 12.5642,12.7648 7.5,12.5C 7.99255,10.1944 8.32588,7.86105 8.5,5.5C 11.1667,5.5 13.8333,5.5 16.5,5.5 Z"/></g>
</svg>
