<?xml version="1.0" encoding="UTF-8"?>
<svg xmlns="http://www.w3.org/2000/svg" xmlns:xlink="http://www.w3.org/1999/xlink" width="24px" height="24px" viewBox="0 0 24 24" version="1.1">
<g id="surface1">
<path style=" stroke:none;fill-rule:nonzero;fill:rgb(0%,0%,0%);fill-opacity:1;" d="M 9.789062 3.1875 C 6.824219 4.949219 4.011719 6.375 3.5625 6.375 C 2.398438 6.375 0.675781 7.050781 0.300781 7.613281 C 0.148438 7.875 0 11.324219 0 15.261719 C 0 22.011719 0.0390625 22.539062 0.75 23.25 C 1.460938 23.960938 1.988281 24 11.363281 24 C 23.0625 24 22.875 24.039062 22.875 20.664062 C 22.875 19.164062 23.0625 18.300781 23.4375 18 C 23.8125 17.699219 24 16.835938 24 15.335938 C 24 13.914062 23.8125 12.976562 23.4375 12.601562 C 23.0625 12.261719 22.875 11.324219 22.875 9.976562 C 22.875 8.023438 22.273438 6.75 21.375 6.75 C 21.1875 6.75 20.324219 5.511719 19.460938 4.011719 C 17.511719 0.601562 16.949219 0 15.976562 0 C 15.523438 0.0390625 12.75 1.460938 9.789062 3.1875 Z M 16.5 1.460938 C 16.5 2.101562 8.664062 6.414062 7.6875 6.300781 C 6.976562 6.226562 7.6875 5.664062 11.175781 3.675781 C 15.449219 1.199219 16.5 0.75 16.5 1.460938 Z M 17.625 3.148438 C 17.625 3.898438 13.199219 6.449219 12.074219 6.300781 C 11.324219 6.226562 11.664062 5.886719 14.136719 4.425781 C 17.398438 2.476562 17.625 2.398438 17.625 3.148438 Z M 19.050781 5.4375 L 19.5 6.375 L 15.1875 6.375 L 16.6875 5.4375 C 18.5625 4.3125 18.523438 4.3125 19.050781 5.4375 Z M 21.300781 7.949219 C 21.5625 8.210938 21.75 9.226562 21.75 10.199219 L 21.75 12 L 19.835938 12 C 16.875 12 15.414062 13.085938 15.375 15.300781 C 15.375 16.125 15.675781 16.835938 16.3125 17.4375 C 17.0625 18.226562 17.585938 18.375 19.5 18.375 L 21.789062 18.375 L 21.675781 20.511719 L 21.5625 22.6875 L 1.3125 22.6875 L 1.199219 15.5625 C 1.125 9.1875 1.164062 8.398438 1.761719 7.988281 C 2.664062 7.3125 20.664062 7.3125 21.300781 7.949219 Z M 22.800781 15.261719 L 22.6875 17.4375 L 20.625 17.550781 C 18.039062 17.664062 16.726562 17.023438 16.574219 15.601562 C 16.351562 13.800781 17.363281 13.125 20.324219 13.125 L 22.914062 13.125 Z M 22.800781 15.261719 "/>
<path style=" stroke:none;fill-rule:nonzero;fill:rgb(0%,0%,0%);fill-opacity:1;" d="M 17.886719 14.476562 C 17.4375 14.925781 17.585938 16.050781 18.113281 16.238281 C 18.898438 16.539062 19.574219 15.9375 19.425781 15.148438 C 19.3125 14.4375 18.335938 14.023438 17.886719 14.476562 Z M 17.886719 14.476562 "/>
</g>
</svg>
